{
  "accessors": [
    {
      "bufferView": 2,
      "componentType": 5126,
      "count": 1474,
      "max": [
        1.0845448970794678,
        6.612846374511719,
        8.33716869354248
      ],
      "min": [
        -0.6139888167381287,
        -0.4720706045627594,
        -0.999655544757843
      ],
      "type": "VEC3"
    },
    {
      "bufferView": 2,
      "byteOffset": 17688,
      "componentType": 5126,
      "count": 1474,
      "max": [
        0.9999992847442627,
        1.0,
        0.9939470887184143
      ],
      "min": [
        -1.0,
        -1.0,
        -0.9857099056243896
      ],
      "type": "VEC3"
    },
    {
      "bufferView": 3,
      "componentType": 5126,
      "count": 1474,
      "max": [
        1.0,
        1.0,
        0.9999997019767761,
        1.0
      ],
      "min": [
        -0.9533640742301941,
        -0.9966756105422974,
        -0.999999463558197,
        -1.0
      ],
      "type": "VEC4"
    },
    {
      "bufferView": 1,
      "componentType": 5126,
      "count": 1474,
      "max": [
        0.9992454051971436,
        0.9395882487297058
      ],
      "min": [
        0.0,
        1.4081533663556911e-05
      ],
      "type": "VEC2"
    },
    {
      "bufferView": 0,
      "componentType": 5125,
      "count": 2265,
      "type": "SCALAR"
    }
  ],
  "asset": {
    "extras": {
      "author": "Shannan Taylor (https://sketchfab.com/ShannanTaylor)",
      "license": "CC-BY-4.0 (http://creativecommons.org/licenses/by/4.0/)",
      "source": "https://sketchfab.com/3d-models/golf-club-driver-spikes-0ddab0d90a6f44e9852903384fe98b04",
      "title": "Golf Club Driver Spikes"
    },
    "generator": "Sketchfab-16.99.0",
    "version": "2.0"
  },
  "bufferViews": [
    {
      "buffer": 0,
      "byteLength": 9060,
      "name": "floatBufferViews",
      "target": 34963
    },
    {
      "buffer": 0,
      "byteLength": 11792,
      "byteOffset": 9060,
      "byteStride": 8,
      "name": "floatBufferViews",
      "target": 34962
    },
    {
      "buffer": 0,
      "byteLength": 35376,
      "byteOffset": 20852,
      "byteStride": 12,
      "name": "floatBufferViews",
      "target": 34962
    },
    {
      "buffer": 0,
      "byteLength": 23584,
      "byteOffset": 56228,
      "byteStride": 16,
      "name": "floatBufferViews",
      "target": 34962
    }
  ],
  "buffers": [
    {
      "byteLength": 79812,
      "uri": "scene.bin"
    }
  ],
  "extensionsUsed": [
    "KHR_materials_clearcoat"
  ],
  "images": [
    {
      "uri": "textures/defaultPolygonShader11_baseColor.png"
    },
    {
      "uri": "textures/defaultPolygonShader11_metallicRoughness.png"
    },
    {
      "uri": "textures/defaultPolygonShader11_emissive.jpeg"
    },
    {
      "uri": "textures/defaultPolygonShader11_normal.png"
    }
  ],
  "materials": [
    {
      "alphaMode": "BLEND",
      "doubleSided": true,
      "emissiveFactor": [
        1.0,
        1.0,
        1.0
      ],
      "emissiveTexture": {
        "index": 2
      },
      "extensions": {
        "KHR_materials_clearcoat": {
          "clearcoatFactor": 1.0,
          "clearcoatRoughnessFactor": 0.04
        }
      },
      "name": "defaultPolygonShader11",
      "normalTexture": {
        "index": 3
      },
      "pbrMetallicRoughness": {
        "baseColorTexture": {
          "index": 0
        },
        "metallicRoughnessTexture": {
          "index": 1
        },
        "roughnessFactor": 0.6689544196706123
      }
    }
  ],
  "meshes": [
    {
      "name": "Golf_Club_Weapon_defaultPolygonShader11_0",
      "primitives": [
        {
          "attributes": {
            "NORMAL": 1,
            "POSITION": 0,
            "TANGENT": 2,
            "TEXCOORD_0": 3
          },
          "indices": 4,
          "material": 0,
          "mode": 4
        }
      ]
    }
  ],
  "nodes": [
    {
      "children": [
        1
      ],
      "matrix": [
        1.0,
        -2.8327693431939985e-16,
        -2.8327693431939995e-16,
        0.0,
        -2.832769343193999e-16,
        5.053215392444312e-16,
        -1.0,
        0.0,
        2.832769343193999e-16,
        1.0,
        5.053215392444312e-16,
        0.0,
        0.0,
        0.0,
        0.0,
        1.0
      ],
      "name": "Sketchfab_model"
    },
    {
      "children": [
        2
      ],
      "matrix": [
        0.009999999776482582,
        0.0,
        0.0,
        0.0,
        0.0,
        0.0,
        0.009999999776482582,
        0.0,
        0.0,
        -0.009999999776482582,
        0.0,
        0.0,
        0.0,
        0.0,
        0.0,
        1.0
      ],
      "name": "Spike_Golf_Club.fbx"
    },
    {
      "children": [
        3
      ],
      "name": "RootNode"
    },
    {
      "children": [
        4
      ],
      "name": "Golf_Club_Weapon"
    },
    {
      "mesh": 0,
      "name": "Golf_Club_Weapon_defaultPolygonShader11_0"
    }
  ],
  "samplers": [
    {
      "magFilter": 9729,
      "minFilter": 9987,
      "wrapS": 10497,
      "wrapT": 10497
    }
  ],
  "scene": 0,
  "scenes": [
    {
      "name": "Sketchfab_Scene",
      "nodes": [
        0
      ]
    }
  ],
  "textures": [
    {
      "sampler": 0,
      "source": 0
    },
    {
      "sampler": 0,
      "source": 1
    },
    {
      "sampler": 0,
      "source": 2
    },
    {
      "sampler": 0,
      "source": 3
    }
  ]
}
