{
  "accessors": [
    {
      "bufferView": 2,
      "componentType": 5126,
      "count": 420,
      "max": [
        2.1773629188537598,
        5.121599197387695,
        561.9846801757813
      ],
      "min": [
        -2.1773810386657715,
        -6.207505226135254,
        -93.15058135986328
      ],
      "type": "VEC3"
    },
    {
      "bufferView": 2,
      "byteOffset": 5040,
      "componentType": 5126,
      "count": 420,
      "max": [
        1.0,
        0.8797684907913208,
        1.0
      ],
      "min": [
        -1.0,
        -0.8756851553916931,
        -1.0
      ],
      "type": "VEC3"
    },
    {
      "bufferView": 1,
      "componentType": 5126,
      "count": 420,
      "max": [
        0.9481265544891357,
        0.9832940697669983
      ],
      "min": [
        0.7140792608261108,
        0.00019250132027082145
      ],
      "type": "VEC2"
    },
    {
      "bufferView": 0,
      "componentType": 5125,
      "count": 636,
      "type": "SCALAR"
    },
    {
      "bufferView": 2,
      "byteOffset": 10080,
      "componentType": 5126,
      "count": 396,
      "max": [
        2.3047285079956055,
        142.20010375976563,
        3.10296630859375
      ],
      "min": [
        -2.304865598678589,
        -0.8672277331352234,
        -229.37538146972656
      ],
      "type": "VEC3"
    },
    {
      "bufferView": 2,
      "byteOffset": 14832,
      "componentType": 5126,
      "count": 396,
      "max": [
        1.0,
        0.8645005822181702,
        1.0
      ],
      "min": [
        -1.0,
        -0.8656558394432068,
        -0.7813207507133484
      ],
      "type": "VEC3"
    },
    {
      "bufferView": 1,
      "byteOffset": 3360,
      "componentType": 5126,
      "count": 396,
      "max": [
        0.5204246044158936,
        0.9999769330024719
      ],
      "min": [
        0.1386403739452362,
        2.3096799850463867e-05
      ],
      "type": "VEC2"
    },
    {
      "bufferView": 0,
      "byteOffset": 2544,
      "componentType": 5125,
      "count": 600,
      "type": "SCALAR"
    },
    {
      "bufferView": 2,
      "byteOffset": 19584,
      "componentType": 5126,
      "count": 36,
      "max": [
        0.77989661693573,
        0.9005470275878906,
        1.87470281124115
      ],
      "min": [
        -0.7798964977264404,
        -0.9005467891693115,
        -2.0573863983154297
      ],
      "type": "VEC3"
    },
    {
      "bufferView": 2,
      "byteOffset": 20016,
      "componentType": 5126,
      "count": 36,
      "max": [
        0.9989436864852905,
        0.8648048043251038,
        1.0
      ],
      "min": [
        -0.9989436864852905,
        -0.8653726577758789,
        -1.0
      ],
      "type": "VEC3"
    },
    {
      "bufferView": 1,
      "byteOffset": 6528,
      "componentType": 5126,
      "count": 36,
      "max": [
        0.9962437152862549,
        0.7932274341583252
      ],
      "min": [
        0.6219992637634277,
        0.00014124176232144237
      ],
      "type": "VEC2"
    },
    {
      "bufferView": 0,
      "byteOffset": 4944,
      "componentType": 5125,
      "count": 60,
      "type": "SCALAR"
    },
    {
      "bufferView": 2,
      "byteOffset": 20448,
      "componentType": 5126,
      "count": 60,
      "max": [
        0.8401269316673279,
        1.2121814489364624,
        3.4544179439544678
      ],
      "min": [
        -0.8401269316673279,
        -0.9193997383117676,
        -3.825850248336792
      ],
      "type": "VEC3"
    },
    {
      "bufferView": 2,
      "byteOffset": 21168,
      "componentType": 5126,
      "count": 60,
      "max": [
        0.9999972581863403,
        0.8643364906311035,
        0.9989869594573975
      ],
      "min": [
        -0.9999972581863403,
        -0.8662282228469849,
        -0.9989869594573975
      ],
      "type": "VEC3"
    },
    {
      "bufferView": 1,
      "byteOffset": 6816,
      "componentType": 5126,
      "count": 60,
      "max": [
        0.9815857410430908,
        0.9998400211334229
      ],
      "min": [
        0.0001599243696546182,
        0.21081003546714783
      ],
      "type": "VEC2"
    },
    {
      "bufferView": 0,
      "byteOffset": 5184,
      "componentType": 5125,
      "count": 96,
      "type": "SCALAR"
    }
  ],
  "asset": {
    "extras": {
      "author": "Falxxx (https://sketchfab.com/Falxxx)",
      "license": "CC-BY-4.0 (http://creativecommons.org/licenses/by/4.0/)",
      "source": "https://sketchfab.com/3d-models/ps1-style-bow-low-poly-85dcb972e1094fd29817b6ee86538ee8",
      "title": "PS1 style Bow (Low Poly)"
    },
    "generator": "Sketchfab-13.21.0",
    "version": "2.0"
  },
  "bufferViews": [
    {
      "buffer": 0,
      "byteLength": 5568,
      "name": "floatBufferViews",
      "target": 34963
    },
    {
      "buffer": 0,
      "byteLength": 7296,
      "byteOffset": 5568,
      "byteStride": 8,
      "name": "floatBufferViews",
      "target": 34962
    },
    {
      "buffer": 0,
      "byteLength": 21888,
      "byteOffset": 12864,
      "byteStride": 12,
      "name": "floatBufferViews",
      "target": 34962
    }
  ],
  "buffers": [
    {
      "byteLength": 34752,
      "uri": "scene.bin"
    }
  ],
  "images": [
    {
      "uri": "textures/Material_baseColor.png"
    }
  ],
  "materials": [
    {
      "doubleSided": true,
      "name": "Material",
      "pbrMetallicRoughness": {
        "baseColorTexture": {
          "index": 0
        },
        "metallicFactor": 0.0
      }
    }
  ],
  "meshes": [
    {
      "name": "Cylinder_Material_0",
      "primitives": [
        {
          "attributes": {
            "NORMAL": 1,
            "POSITION": 0,
            "TEXCOORD_0": 2
          },
          "indices": 3,
          "material": 0,
          "mode": 4
        }
      ]
    },
    {
      "name": "Cylinder.001_Material_0",
      "primitives": [
        {
          "attributes": {
            "NORMAL": 5,
            "POSITION": 4,
            "TEXCOORD_0": 6
          },
          "indices": 7,
          "material": 0,
          "mode": 4
        }
      ]
    },
    {
      "name": "Cylinder.002_Material_0",
      "primitives": [
        {
          "attributes": {
            "NORMAL": 9,
            "POSITION": 8,
            "TEXCOORD_0": 10
          },
          "indices": 11,
          "material": 0,
          "mode": 4
        }
      ]
    },
    {
      "name": "Cylinder.003_Material_0",
      "primitives": [
        {
          "attributes": {
            "NORMAL": 13,
            "POSITION": 12,
            "TEXCOORD_0": 14
          },
          "indices": 15,
          "material": 0,
          "mode": 4
        }
      ]
    }
  ],
  "nodes": [
    {
      "children": [
        1
      ],
      "matrix": [
        1.0,
        0.0,
        0.0,
        0.0,
        0.0,
        2.220446049250313e-16,
        -1.0,
        0.0,
        0.0,
        1.0,
        2.220446049250313e-16,
        0.0,
        0.0,
        0.0,
        0.0,
        1.0
      ],
      "name": "Sketchfab_model"
    },
    {
      "children": [
        2
      ],
      "matrix": [
        0.009999999776482582,
        0.0,
        0.0,
        0.0,
        0.0,
        0.0,
        0.009999999776482582,
        0.0,
        0.0,
        -0.009999999776482582,
        0.0,
        0.0,
        0.0,
        0.0,
        0.0,
        1.0
      ],
      "name": "77ddde1b51a34a75b49472127df81cdb.fbx"
    },
    {
      "children": [
        3,
        5,
        7,
        9
      ],
      "name": "RootNode"
    },
    {
      "children": [
        4
      ],
      "matrix": [
        1.7907480008659125,
        3.223508369199643,
        1.955357378723294e-07,
        0.0,
        -0.031847553595755765,
        0.017691972656915637,
        3.68734053144508,
        0.0,
        3.223353334696896,
        -1.7906618771242142,
        0.03643174746326822,
        0.0,
        -327.71295166015625,
        544.9254150390625,
        -396.8662414550781,
        1.0
      ],
      "name": "Cylinder"
    },
    {
      "mesh": 0,
      "name": "Cylinder_Material_0"
    },
    {
      "children": [
        6
      ],
      "matrix": [
        4.335699683623702,
        7.804649389568764,
        1.196201963290222e-06,
        0.0,
        4.084963097182166,
        -2.26930938520186,
        -7.607502029814899,
        0.0,
        -6.650230604164562,
        3.6943886748914574,
        -4.672973777588769,
        0.0,
        -612.8458251953125,
        703.3245849609375,
        -386.9434509277344,
        1.0
      ],
      "name": "Cylinder.001"
    },
    {
      "mesh": 1,
      "name": "Cylinder.001_Material_0"
    },
    {
      "children": [
        8
      ],
      "matrix": [
        14.066855886153114,
        25.32161289886323,
        2.1158997410338755e-06,
        0.0,
        -0.7796652601337763,
        0.43312802224676683,
        -28.952808965949338,
        0.0,
        -25.309608577013282,
        14.060187079023398,
        0.8918956225424527,
        0.0,
        379.3767395019531,
        152.11737060546875,
        -96.1388931274414,
        1.0
      ],
      "name": "Cylinder.002"
    },
    {
      "mesh": 2,
      "name": "Cylinder.002_Material_0"
    },
    {
      "children": [
        10
      ],
      "matrix": [
        14.066855886153114,
        25.32161289886323,
        2.1158997410338755e-06,
        0.0,
        -0.7796652601337763,
        0.43312802224676683,
        -28.952808965949338,
        0.0,
        -25.309608577013282,
        14.060187079023398,
        0.8918956225424527,
        0.0,
        561.1821899414063,
        51.119422912597656,
        -95.8832015991211,
        1.0
      ],
      "name": "Cylinder.003"
    },
    {
      "mesh": 3,
      "name": "Cylinder.003_Material_0"
    }
  ],
  "samplers": [
    {
      "magFilter": 9729,
      "minFilter": 9987,
      "wrapS": 10497,
      "wrapT": 10497
    }
  ],
  "scene": 0,
  "scenes": [
    {
      "name": "Sketchfab_Scene",
      "nodes": [
        0
      ]
    }
  ],
  "textures": [
    {
      "sampler": 0,
      "source": 0
    }
  ]
}
