{
  "accessors": [
    {
      "bufferView": 2,
      "componentType": 5126,
      "count": 651,
      "max": [
        1.116201400756836,
        0.2273731678724289,
        1.514135718345642
      ],
      "min": [
        -1.0785447359085083,
        -0.2273729145526886,
        1.219336986541748
      ],
      "type": "VEC3"
    },
    {
      "bufferView": 2,
      "byteOffset": 7812,
      "componentType": 5126,
      "count": 651,
      "max": [
        0.9999755620956421,
        0.9564521908760071,
        1.0
      ],
      "min": [
        -0.9999936819076538,
        -0.9564521908760071,
        -0.7942908406257629
      ],
      "type": "VEC3"
    },
    {
      "bufferView": 3,
      "componentType": 5126,
      "count": 651,
      "max": [
        0.55923992395401,
        1.0,
        0.9563215374946594,
        1.0
      ],
      "min": [
        -0.5574364066123962,
        -1.0,
        -0.9563214778900146,
        1.0
      ],
      "type": "VEC4"
    },
    {
      "bufferView": 1,
      "componentType": 5126,
      "count": 651,
      "max": [
        0.9871127009391785,
        0.5907463431358337
      ],
      "min": [
        0.6319236755371094,
        0.011757127940654755
      ],
      "type": "VEC2"
    },
    {
      "bufferView": 0,
      "componentType": 5125,
      "count": 3024,
      "type": "SCALAR"
    },
    {
      "bufferView": 2,
      "byteOffset": 15624,
      "componentType": 5126,
      "count": 582,
      "max": [
        1.481479287147522,
        1.4814778566360474,
        2.4813191890716553
      ],
      "min": [
        -1.4814783334732056,
        -1.4814789295196533,
        -2.4813191890716553
      ],
      "type": "VEC3"
    },
    {
      "bufferView": 2,
      "byteOffset": 22608,
      "componentType": 5126,
      "count": 582,
      "max": [
        1.0,
        1.0,
        1.0
      ],
      "min": [
        -1.0,
        -1.0,
        -1.0
      ],
      "type": "VEC3"
    },
    {
      "bufferView": 3,
      "byteOffset": 10416,
      "componentType": 5126,
      "count": 582,
      "max": [
        0.9994646310806274,
        0.41362226009368896,
        0.0,
        1.0
      ],
      "min": [
        -0.9994839429855347,
        -0.4034099876880646,
        -0.9999997019767761,
        1.0
      ],
      "type": "VEC4"
    },
    {
      "bufferView": 1,
      "byteOffset": 5208,
      "componentType": 5126,
      "count": 582,
      "max": [
        0.9641702771186829,
        0.9801232218742371
      ],
      "min": [
        0.02883431315422058,
        0.022762570530176163
      ],
      "type": "VEC2"
    },
    {
      "bufferView": 0,
      "byteOffset": 12096,
      "componentType": 5125,
      "count": 3264,
      "type": "SCALAR"
    }
  ],
  "asset": {
    "extras": {
      "author": "assetfactory (https://sketchfab.com/assetfactory)",
      "license": "SKETCHFAB Standard (https://sketchfab.com/licenses)",
      "source": "https://sketchfab.com/3d-models/american-football-ball-1673da54fa6d44afaa8de114f930700f",
      "title": "American Football Ball"
    },
    "generator": "Sketchfab-16.33.0",
    "version": "2.0"
  },
  "bufferViews": [
    {
      "buffer": 0,
      "byteLength": 25152,
      "name": "floatBufferViews",
      "target": 34963
    },
    {
      "buffer": 0,
      "byteLength": 9864,
      "byteOffset": 25152,
      "byteStride": 8,
      "name": "floatBufferViews",
      "target": 34962
    },
    {
      "buffer": 0,
      "byteLength": 29592,
      "byteOffset": 35016,
      "byteStride": 12,
      "name": "floatBufferViews",
      "target": 34962
    },
    {
      "buffer": 0,
      "byteLength": 19728,
      "byteOffset": 64608,
      "byteStride": 16,
      "name": "floatBufferViews",
      "target": 34962
    }
  ],
  "buffers": [
    {
      "byteLength": 84336,
      "uri": "scene.bin"
    }
  ],
  "images": [
    {
      "uri": "textures/AmericanFb_baseColor.jpeg"
    },
    {
      "uri": "textures/AmericanFb_metallicRoughness.png"
    },
    {
      "uri": "textures/AmericanFb_normal.png"
    }
  ],
  "materials": [
    {
      "doubleSided": true,
      "name": "AmericanFb",
      "normalTexture": {
        "index": 2
      },
      "occlusionTexture": {
        "index": 1
      },
      "pbrMetallicRoughness": {
        "baseColorTexture": {
          "index": 0
        },
        "metallicFactor": 0.0,
        "metallicRoughnessTexture": {
          "index": 1
        },
        "roughnessFactor": 0.1788854381999832
      }
    }
  ],
  "meshes": [
    {
      "name": "Plane.001_AmericanFb_0",
      "primitives": [
        {
          "attributes": {
            "NORMAL": 1,
            "POSITION": 0,
            "TANGENT": 2,
            "TEXCOORD_0": 3
          },
          "indices": 4,
          "material": 0,
          "mode": 4
        }
      ]
    },
    {
      "name": "Sphere_AmericanFb_0",
      "primitives": [
        {
          "attributes": {
            "NORMAL": 6,
            "POSITION": 5,
            "TANGENT": 7,
            "TEXCOORD_0": 8
          },
          "indices": 9,
          "material": 0,
          "mode": 4
        }
      ]
    }
  ],
  "nodes": [
    {
      "children": [
        1
      ],
      "matrix": [
        1.0,
        0.0,
        0.0,
        0.0,
        0.0,
        2.220446049250313e-16,
        -1.0,
        0.0,
        0.0,
        1.0,
        2.220446049250313e-16,
        0.0,
        0.0,
        0.0,
        0.0,
        1.0
      ],
      "name": "Sketchfab_model"
    },
    {
      "children": [
        2
      ],
      "matrix": [
        1.0,
        0.0,
        0.0,
        0.0,
        0.0,
        0.0,
        1.0,
        0.0,
        0.0,
        -1.0,
        0.0,
        0.0,
        0.0,
        0.0,
        0.0,
        1.0
      ],
      "name": "AmFootballBall.fbx"
    },
    {
      "children": [
        3,
        5
      ],
      "name": "RootNode"
    },
    {
      "children": [
        4
      ],
      "matrix": [
        55.33082962036133,
        0.0,
        0.0,
        0.0,
        0.0,
        55.33082962036127,
        2.4185875743375495e-06,
        0.0,
        0.0,
        -2.4185875743375495e-06,
        55.33082962036127,
        0.0,
        0.0,
        0.0,
        0.0,
        1.0
      ],
      "name": "Plane.001"
    },
    {
      "mesh": 0,
      "name": "Plane.001_AmericanFb_0"
    },
    {
      "children": [
        6
      ],
      "matrix": [
        4.177361425534258e-06,
        -55.33082962036107,
        3.297973265201727e-06,
        0.0,
        -1.561048499357181e-05,
        -3.2979744446492987e-06,
        -55.33082962035903,
        0.0,
        55.33082962035897,
        4.177360494876408e-06,
        -1.5610485242361535e-05,
        0.0,
        0.0,
        0.0,
        0.0,
        1.0
      ],
      "name": "Sphere"
    },
    {
      "mesh": 1,
      "name": "Sphere_AmericanFb_0"
    }
  ],
  "samplers": [
    {
      "magFilter": 9729,
      "minFilter": 9987,
      "wrapS": 10497,
      "wrapT": 10497
    }
  ],
  "scene": 0,
  "scenes": [
    {
      "name": "Sketchfab_Scene",
      "nodes": [
        0
      ]
    }
  ],
  "textures": [
    {
      "sampler": 0,
      "source": 0
    },
    {
      "sampler": 0,
      "source": 1
    },
    {
      "sampler": 0,
      "source": 2
    }
  ]
}
