{
  "accessors": [
    {
      "bufferView": 2,
      "componentType": 5126,
      "count": 2013,
      "max": [
        0.6628710031509399,
        4.8600358963012695,
        0.7383869886398315
      ],
      "min": [
        -0.8139029741287231,
        0.0030139998998492956,
        -0.7383859753608704
      ],
      "type": "VEC3"
    },
    {
      "bufferView": 2,
      "byteOffset": 24156,
      "componentType": 5126,
      "count": 2013,
      "max": [
        0.9997156262397766,
        1.0,
        0.9997157454490662
      ],
      "min": [
        -0.9997157454490662,
        -1.0,
        -0.9997156262397766
      ],
      "type": "VEC3"
    },
    {
      "bufferView": 3,
      "componentType": 5126,
      "count": 2013,
      "max": [
        0.9999929070472717,
        0.08011402189731598,
        0.9999974966049194,
        1.0
      ],
      "min": [
        -0.9999999403953552,
        -0.07838720083236694,
        -0.9999929070472717,
        1.0
      ],
      "type": "VEC4"
    },
    {
      "bufferView": 1,
      "componentType": 5126,
      "count": 2013,
      "max": [
        0.6639400124549866,
        0.9863029718399048
      ],
      "min": [
        0.07697200030088425,
        0.04632199928164482
      ],
      "type": "VEC2"
    },
    {
      "bufferView": 0,
      "componentType": 5125,
      "count": 3240,
      "type": "SCALAR"
    }
  ],
  "asset": {
    "extras": {
      "author": "kerbo (https://sketchfab.com/kerbo)",
      "license": "CC-BY-4.0 (http://creativecommons.org/licenses/by/4.0/)",
      "source": "https://sketchfab.com/3d-models/bowling-pin-a8e95939a8ee44b1a8f1f085432154f3",
      "title": "Bowling Pin"
    },
    "generator": "Sketchfab-15.14.0",
    "version": "2.0"
  },
  "bufferViews": [
    {
      "buffer": 0,
      "byteLength": 12960,
      "name": "floatBufferViews",
      "target": 34963
    },
    {
      "buffer": 0,
      "byteLength": 16104,
      "byteOffset": 12960,
      "byteStride": 8,
      "name": "floatBufferViews",
      "target": 34962
    },
    {
      "buffer": 0,
      "byteLength": 48312,
      "byteOffset": 29064,
      "byteStride": 12,
      "name": "floatBufferViews",
      "target": 34962
    },
    {
      "buffer": 0,
      "byteLength": 32208,
      "byteOffset": 77376,
      "byteStride": 16,
      "name": "floatBufferViews",
      "target": 34962
    }
  ],
  "buffers": [
    {
      "byteLength": 109584,
      "uri": "scene.bin"
    }
  ],
  "images": [
    {
      "uri": "textures/BowlingPinMat_baseColor.jpeg"
    },
    {
      "uri": "textures/BowlingPinMat_metallicRoughness.png"
    },
    {
      "uri": "textures/BowlingPinMat_normal.png"
    }
  ],
  "materials": [
    {
      "doubleSided": true,
      "name": "BowlingPinMat",
      "normalTexture": {
        "index": 2
      },
      "occlusionTexture": {
        "index": 1
      },
      "pbrMetallicRoughness": {
        "baseColorTexture": {
          "index": 0
        },
        "metallicRoughnessTexture": {
          "index": 1
        }
      }
    }
  ],
  "meshes": [
    {
      "name": "defaultMaterial",
      "primitives": [
        {
          "attributes": {
            "NORMAL": 1,
            "POSITION": 0,
            "TANGENT": 2,
            "TEXCOORD_0": 3
          },
          "indices": 4,
          "material": 0,
          "mode": 4
        }
      ]
    }
  ],
  "nodes": [
    {
      "children": [
        1
      ],
      "matrix": [
        1.0,
        0.0,
        0.0,
        0.0,
        0.0,
        2.220446049250313e-16,
        -1.0,
        0.0,
        0.0,
        1.0,
        2.220446049250313e-16,
        0.0,
        0.0,
        0.0,
        0.0,
        1.0
      ],
      "name": "Sketchfab_model"
    },
    {
      "children": [
        2
      ],
      "matrix": [
        1.0,
        0.0,
        0.0,
        0.0,
        0.0,
        -4.371139006309477e-08,
        0.999999999999999,
        0.0,
        0.0,
        -0.999999999999999,
        -4.371139006309477e-08,
        0.0,
        0.0,
        0.0,
        0.0,
        1.0
      ],
      "name": "Collada visual scene group"
    },
    {
      "children": [
        3
      ],
      "matrix": [
        50.0,
        0.0,
        0.0,
        0.0,
        0.0,
        50.0,
        8e-06,
        0.0,
        0.0,
        -8e-06,
        50.0,
        0.0,
        0.0,
        0.0,
        0.0,
        1.0
      ],
      "name": "Bowling_Pin_Geo_Grp"
    },
    {
      "children": [
        4
      ],
      "name": "Bowling_Pin_Geo"
    },
    {
      "mesh": 0,
      "name": "defaultMaterial"
    }
  ],
  "samplers": [
    {
      "magFilter": 9729,
      "minFilter": 9987,
      "wrapS": 10497,
      "wrapT": 10497
    }
  ],
  "scene": 0,
  "scenes": [
    {
      "name": "Sketchfab_Scene",
      "nodes": [
        0
      ]
    }
  ],
  "textures": [
    {
      "sampler": 0,
      "source": 0
    },
    {
      "sampler": 0,
      "source": 1
    },
    {
      "sampler": 0,
      "source": 2
    }
  ]
}
